<?xml version="1.0" encoding="utf-8" standalone="no"?>
<!DOCTYPE svg PUBLIC "-//W3C//DTD SVG 1.1//EN" "http://www.w3.org/Graphics/SVG/1.1/DTD/svg11.dtd">
<svg version="1.1" width="612pt" height="792pt" viewBox="0 0 612 792" overflow="visible" xmlns="http://www.w3.org/2000/svg">
  <path d="M542.335,598.2497 C541.8772,601.7884 545.9356,605.2958 549.6738,608.5715 C553.5118,611.8576 556.4742,614.9167 559.4695,618.0304 C562.4686,621.1367 565.892,624.3192 569.2631,627.4916 L579.0543,636.9553 L588.8434,646.4211 L598.6304,655.889 C601.8972,659.0904 605.1326,662.4501 606.9667,666.4844 C608.8391,670.4804 609.2741,675.1932 608.6136,679.8326 C607.9529,684.465 606.2377,688.8872 603.2524,692.1015 C600.298,695.3433 596.0231,697.4174 591.4495,698.3797 C586.8707,699.3457 582.1278,699.1638 578.0092,697.5485 C573.8559,695.9686 570.3011,692.9844 567.0297,689.8091 L557.5615,680.0224 L548.0953,670.2335 L538.6315,660.4426 C535.4871,657.0309 532.3347,653.5608 529.1699,650.6494 C526.0031,647.7299 522.8507,644.9276 519.7107,640.8538 C516.566,636.904 513.3892,632.2283 509.8771,632.2018 C506.3806,631.9315 502.5683,636.2941 498.8341,639.7351 C495.088,643.3077 491.4433,645.4225 487.6959,647.5659 C483.9528,649.6993 480.0744,652.3166 476.1518,654.7852 C472.2281,657.258 468.2808,659.3899 464.2759,661.4455 L452.0829,667.5064 L439.6212,672.994 L426.9445,677.961 L414.0725,682.3989 L401.0256,686.2964 L387.8214,689.6227 L374.4966,692.4221 L361.0819,694.7534 L347.5845,696.5543 L334.0258,697.8047 L320.4336,698.6017 L306.8201,698.9064 L293.2059,698.652 L279.6094,697.9336 L266.0451,696.7405 L252.5419,694.9852 L239.1147,692.7285 L225.7749,689.9999 L212.5583,686.7228 L199.4942,682.8845 L186.5964,678.5231 L173.8897,673.6324 L161.404,668.1989 L149.1775,662.2057 C145.1513,660.1795 141.1791,658.0773 137.2632,655.6148 C133.3475,653.1572 129.4835,650.5458 125.6743,648.4675 C121.8652,646.3722 118.1216,644.3546 114.4842,640.7111 C110.8454,637.2081 107.2938,632.5598 103.7503,632.335 C100.2116,631.8772 96.70417,635.9356 93.42854,639.6738 C90.14242,643.5118 87.08327,646.4742 83.96962,649.4695 C80.86326,652.4686 77.68084,655.892 74.50837,659.2631 L65.04473,669.0543 L55.5789,678.8434 L46.11095,688.6304 C42.9096,691.8972 39.54985,695.1326 35.5156,696.9667 C31.51957,698.8391 26.80679,699.2741 22.16744,698.6136 C17.53499,697.9529 13.11282,696.2377 9.89848,693.2524 C6.656722,690.298 4.582644,686.0231 3.620293,681.4495 C2.654325,676.8707 2.836228,672.1278 4.451451,668.0092 C6.03142,663.8559 9.015605,660.3011 12.19083,657.0297 L21.97763,647.5615 L31.76645,638.0953 L41.55744,628.6315 C44.96905,625.4871 48.43922,622.3347 51.35067,619.1699 C54.27011,616.0031 57.07243,612.8507 61.14616,609.7107 C65.09602,606.566 69.77166,603.3892 69.79819,599.8771 C70.06857,596.3806 65.70591,592.5682 62.26488,588.8342 C58.69225,585.088 56.57752,581.4433 54.43415,577.6959 C52.30068,573.9528 49.6834,570.0743 47.2148,566.1518 C44.74199,562.2281 42.61013,558.2808 40.55451,554.2759 L34.49358,542.0829 L29.00601,529.6213 L24.03898,516.9445 L19.6011,504.0725 L15.70356,491.0256 L12.37724,477.8214 L9.577971,464.4966 L7.246569,451.0819 L5.445691,437.5845 L4.19534,424.0258 L3.398294,410.4336 L3.09365,396.8201 L3.347999,383.2059 L4.066435,369.6094 L5.259533,356.0451 L7.014859,342.5419 L9.271509,329.1147 L12.00014,315.7749 L15.27719,302.5583 L19.11551,289.4942 L23.47686,276.5964 L28.36764,263.8897 L33.80113,251.404 L39.79427,239.1775 C41.82048,235.1513 43.9227,231.1791 46.38518,227.2632 C48.84281,223.3475 51.45419,219.4835 53.53252,215.6743 C55.62783,211.8652 57.6454,208.1216 61.28896,204.4842 C64.79195,200.8454 69.44021,197.2938 69.66505,193.7503 C70.1228,190.2116 66.06441,186.7042 62.32624,183.4285 C58.48814,180.1424 55.52585,177.0833 52.53047,173.9696 C49.53141,170.8633 46.10805,167.6808 42.73695,164.5084 L32.94573,155.0447 L23.15664,145.5789 L13.36959,136.1109 C10.10276,132.9096 6.867398,129.5499 5.033277,125.5156 C3.160898,121.5196 2.725908,116.8068 3.386387,112.1674 C4.047091,107.535 5.762298,103.1128 8.747643,99.89848 C11.702,96.65672 15.97689,94.58264 20.55055,93.62029 C25.12932,92.65433 29.87219,92.83623 33.99086,94.45145 C38.14412,96.03142 41.69892,99.0156 44.97034,102.1908 L54.43855,111.9776 L63.90466,121.7664 L73.36853,131.5574 C76.51295,134.969 79.66527,138.4392 82.83009,141.3507 C85.99693,144.2701 89.14928,147.0724 92.2893,151.1462 C95.43399,155.096 98.61087,159.7717 102.1229,159.7982 C105.6194,160.0686 109.4317,155.7059 113.1658,152.2649 C116.912,148.6922 120.5567,146.5775 124.3041,144.4341 C128.0472,142.3007 131.9256,139.6834 135.8482,137.2148 C139.7719,134.742 143.7192,132.6101 147.7241,130.5545 L159.9171,124.4936 L172.3787,119.006 L185.0555,114.039 L197.9274,109.6011 L210.9744,105.7036 L224.1786,102.3772 L237.5034,99.57797 L250.9181,97.24657 L264.4155,95.44569 L277.9742,94.19534 L291.5664,93.39829 L305.1799,93.09365 L318.7941,93.348 L332.3906,94.06644 L345.9549,95.25954 L359.4581,97.01486 L372.8853,99.27151 L386.2251,102.0001 L399.4417,105.2772 L412.5058,109.1155 L425.4036,113.4769 L438.1103,118.3676 L450.596,123.8011 L462.8225,129.7943 C466.8487,131.8205 470.8209,133.9227 474.7368,136.3852 C478.6524,138.8428 482.5165,141.4542 486.3257,143.5325 C490.1348,145.6278 493.8784,147.6454 497.5158,151.289 C501.1546,154.7919 504.7062,159.4402 508.2497,159.6651 C511.7884,160.1228 515.2958,156.0644 518.5715,152.3262 C521.8576,148.4881 524.9167,145.5258 528.0304,142.5305 C531.1367,139.5314 534.3192,136.108 537.4916,132.737 L546.9553,122.9457 L556.4211,113.1566 L565.889,103.3696 C569.0904,100.1028 572.4501,96.8674 576.4844,95.03328 C580.4804,93.1609 585.1932,92.72591 589.8326,93.38638 C594.465,94.04709 598.8872,95.7623 602.1015,98.74764 C605.3433,101.702 607.4174,105.9769 608.3797,110.5506 C609.3457,115.1293 609.1638,119.8722 607.5485,123.9909 C605.9686,128.1441 602.9844,131.6989 599.8091,134.9703 L590.0224,144.4385 L580.2335,153.9047 L570.4426,163.3685 C567.0309,166.513 563.5608,169.6653 560.6494,172.8301 C557.7299,175.9969 554.9276,179.1493 550.8538,182.2893 C546.904,185.434 542.2283,188.6109 542.2018,192.1228 C541.9315,195.6194 546.2941,199.4317 549.7351,203.1658 C553.3077,206.912 555.4225,210.5567 557.5659,214.3041 C559.6993,218.0472 562.3166,221.9256 564.7852,225.8482 C567.258,229.7719 569.3899,233.7192 571.4455,237.7241 L577.5064,249.9171 L582.994,262.3788 L587.961,275.0555 L592.3989,287.9275 L596.2964,300.9744 L599.6227,314.1786 L602.4221,327.5034 L604.7534,340.9181 L606.5543,354.4155 L607.8047,367.9742 L608.6017,381.5664 L608.9064,395.1799 L608.652,408.7941 L607.9336,422.3906 L606.7405,435.9549 L604.9852,449.4581 L602.7285,462.8853 L599.9999,476.2251 L596.7228,489.4417 L592.8845,502.5058 L588.5231,515.4036 L583.6324,528.1104 L578.1989,540.596 L572.2057,552.8224 C570.1795,556.8487 568.0773,560.8209 565.6148,564.7368 C563.1572,568.6525 560.5458,572.5165 558.4675,576.3257 C556.3722,580.1348 554.3546,583.8784 550.7111,587.5158 C547.2081,591.1546 542.5598,594.7062 542.335,598.2497 z M225.6149,335.2488 C224.6311,330.3079 220.2486,326.3477 215.8758,322.6017 C211.4395,318.8636 207.4413,315.2169 203.4756,311.5128 L191.0854,300.4103 L178.6954,289.3075 L166.3055,278.2046 L153.9156,267.1017 C149.7956,263.4961 145.6688,259.9283 141.5257,255.9989 C137.3828,252.0768 133.2393,248.0652 129.1357,244.896 C125.0309,241.7039 120.9371,238.7548 116.7458,233.7932 C112.5672,229.0167 108.2992,222.8648 104.3564,222.6934 C100.4035,222.213 96.82503,227.8315 93.6519,233.0974 L84.92332,247.256 C82.20876,251.708 79.59356,256.8246 77.172,261.9734 C74.74829,267.126 72.53526,272.118 70.47467,277.1981 C68.41477,282.2763 66.49607,287.5226 64.72675,292.8073 C62.9575,298.093 61.34312,303.3832 59.87378,308.7181 C58.40448,314.0528 57.07828,319.447 55.89441,324.8701 C54.71054,330.2935 53.6697,335.7393 52.7677,341.2088 C51.86576,346.6783 51.10238,352.1743 50.47668,357.6855 C49.85098,363.1967 49.36312,368.722 49.01089,374.2559 C48.6587,379.7898 48.44201,385.333 48.36045,390.8781 C48.27892,396.4232 48.33261,401.9701 48.52135,407.512 C48.71012,413.0539 49.03391,418.5912 49.4934,424.1179 C49.95292,429.6446 50.54813,435.1602 51.28058,440.6558 C52.01306,446.1515 52.88287,451.6285 53.89242,457.0835 C54.90198,462.5384 56.05111,467.9685 57.34205,473.3559 C58.63302,478.7434 60.06623,484.0948 61.64629,489.4232 C63.22635,494.7513 64.95233,500.0411 66.82455,505.2308 C68.6977,510.4209 70.71503,515.5484 72.90362,520.7145 C75.09085,525.8787 77.4631,530.9911 80.03512,535.7415 L88.15473,550.259 C90.97354,555.3374 93.89292,560.9457 97.27742,564.1629 C100.6455,567.4636 104.5015,567.9503 108.5512,565.5656 C112.6014,563.2703 116.7919,558.5231 120.933,554.4551 C125.0816,550.2906 129.1984,546.8685 133.3228,543.3519 L145.7127,532.2491 L158.1026,521.1462 L170.4925,510.0433 L182.8824,498.9404 L195.2724,487.8376 C199.2826,484.0699 203.2315,480.2748 207.6623,476.7348 C212.0334,473.1673 216.826,469.7978 220.0398,465.6377 C223.3164,461.5133 224.773,456.5292 224.7372,451.1691 C224.7444,445.8111 223.5284,440.1935 222.7905,434.6559 C221.998,429.1049 221.7045,423.5991 221.5157,418.0692 L220.9403,401.4436 C220.7675,395.9056 220.7572,390.3807 221.0604,384.8084 C221.3601,379.2372 221.7971,373.653 221.8772,368.1928 C221.9701,362.7301 222.0542,357.3073 223.3953,351.6267 C224.6285,345.9747 226.7708,340.1457 225.6149,335.2488 z M245.2488,476.3851 C240.3079,477.3689 236.3477,481.7514 232.6017,486.1241 C228.8636,490.5605 225.2169,494.5587 221.5128,498.5244 L210.4104,510.9146 L199.3075,523.3046 L188.2046,535.6945 L177.1017,548.0844 C173.4961,552.2044 169.9283,556.3312 165.9989,560.4744 C162.0768,564.6172 158.0652,568.7607 154.896,572.8643 C151.7039,576.9691 148.7548,581.0629 143.7932,585.2543 C139.0167,589.4328 132.8648,593.7008 132.6934,597.6436 C132.213,601.5965 137.8315,605.175 143.0974,608.3481 L157.256,617.0767 C161.708,619.7913 166.8246,622.4064 171.9734,624.828 C177.126,627.2517 182.118,629.4647 187.1981,631.5253 C192.2763,633.5852 197.5226,635.5039 202.8073,637.2733 C208.093,639.0425 213.3832,640.6569 218.7182,642.1262 C224.0528,643.5955 229.447,644.9217 234.8701,646.1056 C240.2935,647.2895 245.7393,648.3303 251.2088,649.2323 C256.6783,650.1342 262.1743,650.8976 267.6855,651.5233 C273.1967,652.149 278.722,652.6369 284.2559,652.9891 C289.7898,653.3413 295.333,653.558 300.8781,653.6395 C306.4232,653.7211 311.9701,653.6674 317.512,653.4786 C323.0539,653.2899 328.5912,652.9661 334.1179,652.5066 C339.6446,652.0471 345.1602,651.4518 350.6558,650.7194 C356.1515,649.9869 361.6285,649.1171 367.0835,648.1076 C372.5384,647.098 377.9685,645.9489 383.3559,644.658 C388.7434,643.367 394.0948,641.9338 399.4232,640.3537 C404.7513,638.7736 410.0411,637.0477 415.2308,635.1754 C420.4209,633.3023 425.5484,631.285 430.7145,629.0964 C435.8787,626.9091 440.9911,624.5369 445.7414,621.9649 L460.259,613.8453 C465.3374,611.0265 470.9457,608.1071 474.1629,604.7226 C477.4636,601.3545 477.9503,597.4985 475.5656,593.4488 C473.2703,589.3986 468.5231,585.2081 464.455,581.067 C460.2906,576.9183 456.8686,572.8016 453.352,568.6772 L442.2491,556.2874 L431.1462,543.8974 L420.0433,531.5075 L408.9404,519.1176 L397.8376,506.7276 C394.0699,502.7174 390.2748,498.7685 386.7348,494.3377 C383.1673,489.9666 379.7978,485.174 375.6377,481.9602 C371.5133,478.6836 366.5292,477.227 361.1691,477.2628 C355.8111,477.2556 350.1935,478.4716 344.6559,479.2095 C339.1049,480.002 333.5991,480.2955 328.0692,480.4843 L311.4436,481.0597 C305.9056,481.2325 300.3807,481.2428 294.8084,480.9396 C289.2372,480.64 283.653,480.2029 278.1928,480.1228 C272.7301,480.0299 267.3073,479.9458 261.6267,478.6047 C255.9747,477.3715 250.1457,475.2292 245.2488,476.3851 z M386.3851,456.7512 C387.3689,461.6921 391.7514,465.6523 396.1241,469.3983 C400.5605,473.1364 404.5587,476.7831 408.5244,480.4872 L420.9146,491.5897 L433.3046,502.6925 L445.6945,513.7954 L458.0844,524.8983 C462.2044,528.5039 466.3312,532.0717 470.4744,536.0012 C474.6172,539.9232 478.7607,543.9348 482.8643,547.104 C486.9691,550.2961 491.0629,553.2452 495.2542,558.2068 C499.4328,562.9833 503.7008,569.1352 507.6436,569.3066 C511.5965,569.787 515.175,564.1685 518.3481,558.9026 L527.0767,544.744 C529.7913,540.292 532.4064,535.1755 534.828,530.0266 C537.2517,524.874 539.4647,519.882 541.5253,514.8019 C543.5852,509.7237 545.5039,504.4774 547.2733,499.1927 C549.0425,493.907 550.6569,488.6168 552.1262,483.2819 C553.5955,477.9472 554.9217,472.553 556.1056,467.1299 C557.2895,461.7065 558.3303,456.2607 559.2323,450.7912 C560.1342,445.3217 560.8976,439.8257 561.5233,434.3145 C562.149,428.8033 562.6369,423.278 562.9891,417.7441 C563.3413,412.2102 563.558,406.667 563.6395,401.1219 C563.7211,395.5768 563.6674,390.0299 563.4786,384.488 C563.2899,378.9461 562.9661,373.4088 562.5066,367.8821 C562.0471,362.3554 561.4518,356.8398 560.7194,351.3442 C559.9869,345.8485 559.1171,340.3715 558.1076,334.9165 C557.098,329.4616 555.9489,324.0315 554.658,318.6441 C553.367,313.2566 551.9338,307.9052 550.3537,302.5768 C548.7736,297.2487 547.0477,291.9589 545.1754,286.7692 C543.3023,281.5791 541.285,276.4516 539.0964,271.2855 C536.9091,266.1213 534.5369,261.0089 531.9649,256.2586 L523.8453,241.741 C521.0265,236.6626 518.1071,231.0543 514.7226,227.8371 C511.3545,224.5364 507.4985,224.0497 503.4488,226.4344 C499.3986,228.7297 495.2081,233.4769 491.067,237.5449 C486.9183,241.7094 482.8016,245.1315 478.6772,248.6481 L466.2873,259.7509 L453.8974,270.8538 L441.5075,281.9567 L429.1176,293.0596 L416.7276,304.1624 C412.7174,307.9301 408.7685,311.7252 404.3377,315.2652 C399.9666,318.8327 395.174,322.2022 391.9602,326.3623 C388.6836,330.4867 387.227,335.4708 387.2628,340.8309 C387.2556,346.1889 388.4716,351.8065 389.2095,357.3441 C390.002,362.8951 390.2955,368.4009 390.4843,373.9308 L391.0597,390.5564 C391.2325,396.0944 391.2428,401.6193 390.9396,407.1916 C390.64,412.7628 390.2029,418.347 390.1228,423.8072 C390.0299,429.2699 389.9458,434.6927 388.6047,440.3733 C387.3715,446.0253 385.2292,451.8543 386.3851,456.7512 z M368.4199,314.04 C373.3149,312.5698 377.2733,308.3125 381.0241,304.0309 L392.1169,291.656 L403.2079,279.2794 L414.2989,266.9028 L425.3899,254.5262 L436.4809,242.1495 C440.0641,238.036 443.6021,233.9193 447.5718,229.7729 C451.5327,225.627 455.6005,221.4764 458.6628,217.3962 C461.7521,213.3148 464.5528,209.2484 469.7537,205.0197 C474.7424,200.8088 481.3221,196.4904 480.8654,192.7704 C480.7835,189.0237 473.6367,185.8947 467.7939,182.9076 C461.7515,179.9295 457.8438,177.0255 453.5962,174.2766 C449.3706,171.5289 444.1058,168.9802 438.8537,166.6123 L423.6135,159.9944 C418.5746,157.948 413.3007,156.06 407.9961,154.3196 C402.6898,152.5795 397.4092,150.9866 392.0815,149.539 C386.7544,148.0913 381.3559,146.7894 375.9307,145.6286 C370.5051,144.4678 365.0631,143.4479 359.5975,142.5667 C354.132,141.6854 348.6382,140.9431 343.1299,140.3376 C337.6217,139.7323 332.101,139.2638 326.572,138.9307 C321.043,138.5977 315.5049,138.4001 309.9651,138.3376 C304.4254,138.2752 298.8847,138.3478 293.3494,138.5552 C287.8141,138.7626 282.2838,139.1046 276.7643,139.5822 C271.2448,140.0598 265.7369,140.6729 260.25,141.4232 C254.7631,142.1735 249.2954,143.0609 243.8485,144.0874 C238.4019,145.114 232.9801,146.2799 227.6052,147.5881 C222.2301,148.8964 216.8923,150.3468 211.5694,151.9419 C206.2469,153.5371 200.9612,155.2778 195.7966,157.1696 C190.6311,159.0624 185.5334,161.0996 180.351,163.2975 C175.1711,165.494 170.0347,167.8778 165.3753,170.4958 C160.705,173.1129 156.2319,175.9 150.9045,178.6622 C145.6866,181.4404 139.7921,184.2726 137.065,187.8532 C134.2058,191.3996 134.8652,195.6893 137.6676,199.8998 C140.4303,204.1291 144.8506,208.2019 148.7533,212.2806 C152.7321,216.3593 156.2583,220.5096 159.8441,224.6574 L170.935,237.034 L182.026,249.4106 L193.117,261.7873 L204.2079,274.1639 C207.8528,278.3717 211.4844,282.6116 215.2988,286.5406 C219.1074,290.4792 222.9712,294.3226 226.3864,298.9203 C229.8421,303.4396 232.9733,308.5451 237.3284,311.4012 C241.6205,314.3626 247.1775,314.8845 252.7526,314.5052 C258.3507,314.1281 263.8078,313.1848 269.261,312.6079 C274.718,311.9921 280.2741,311.6478 285.8359,311.4144 L302.4463,310.9189 C307.9638,310.8262 313.4948,310.8645 319.0628,311.1175 L335.6565,312.0115 C341.1177,312.2704 346.5529,312.6511 352.1978,313.6028 C357.8173,314.4892 363.5663,315.6447 368.4199,314.04 z M248.2265,336.1697 C245.9973,337.7659 245.4434,341.3334 245.0101,344.7072 L243.6303,354.144 L242.5152,363.6159 L241.6856,373.1171 L241.1422,382.6389 L240.8845,392.1728 L240.9127,401.71 L241.2268,411.2422 L241.8267,420.7606 L242.7129,430.2567 L243.8856,439.7216 C244.2848,442.8436 244.5975,446.0343 245.3513,449.1433 C246.099,452.2369 247.4485,455.051 249.9976,456.3146 C252.4988,457.6493 256.0958,457.5115 259.4214,457.7077 C262.7854,457.8555 265.8059,458.466 268.8758,458.9628 C271.9414,459.4662 275.1578,459.7132 278.3634,459.9355 L287.876,460.6219 L297.4049,461.0224 L306.9415,461.1371 L316.4773,460.9659 L326.0037,460.509 L335.512,459.7661 C338.735,459.5414 341.9763,459.2983 344.9936,458.7368 C348.0164,458.1826 350.9725,457.5018 354.4394,457.4194 C357.8558,457.2788 361.6246,457.5268 363.7735,455.8303 C366.0027,454.2341 366.5566,450.6666 366.9899,447.2928 L368.3697,437.856 L369.4848,428.3841 L370.3144,418.8829 L370.8578,409.3611 L371.1155,399.8272 L371.0872,390.29 L370.7732,380.7578 L370.1732,371.2394 L369.2871,361.7433 L368.1144,352.2784 C367.7152,349.1564 367.4025,345.9657 366.6487,342.8567 C365.901,339.7631 364.5515,336.949 362.0024,335.6854 C359.5013,334.3507 355.9042,334.4885 352.5786,334.2923 C349.2146,334.1445 346.1941,333.534 343.1242,333.0372 C340.0586,332.5338 336.8422,332.2868 333.6366,332.0645 L324.124,331.3781 L314.5951,330.9776 L305.0585,330.8629 L295.5227,331.0341 L285.9963,331.491 L276.488,332.2339 C273.265,332.4586 270.0237,332.7017 267.0064,333.2632 C263.9836,333.8174 261.0275,334.4982 257.5606,334.5806 C254.1442,334.7212 250.3754,334.4732 248.2265,336.1697 z" stroke="Black" stroke-width="0" fill="#000000" fill-opacity="1" />
</svg>